<svg width="800" height="800" viewBox="0 0 512 512" xmlns="http://www.w3.org/2000/svg"><path d="M343.001 342.952l.186 1.108a3.45 3.45 0 106.805-1.139l-.186-1.109a3.443 3.443 0 00-3.972-2.833 3.452 3.452 0 00-2.833 3.973z"/><path d="M353.143 362.355c-.295-1.883-2.068-3.158-3.944-2.872a3.451 3.451 0 00-2.873 3.943c6.668 42.401 10.679 76.928 11.934 102.692-3.243.85-9.276 2.393-17.137 4.243a369.917 369.917 0 01-18.866 3.909L300.37 248.184c-.184-1.896-1.864-3.269-3.767-3.102a3.451 3.451 0 00-3.102 3.767l21.933 226.581a373.86 373.86 0 01-55.984 4.782V296.233a3.45 3.45 0 10-6.9 0v183.981a371.328 371.328 0 01-55.946-4.744l21.933-226.583a3.45 3.45 0 00-3.102-3.767c-1.898-.171-3.583 1.205-3.766 3.102l-21.885 226.09a367.624 367.624 0 01-18.718-3.87 650.746 650.746 0 01-17.325-4.313c3.885-79.854 33.125-222.079 45.627-280.009a135.888 135.888 0 003.036-30.658c-.028-1.905-1.62-3.463-3.501-3.398a3.45 3.45 0 00-3.397 3.502 129.015 129.015 0 01-2.882 29.099c-12.685 58.776-42.55 204.102-45.902 283.931a3.454 3.454 0 002.523 3.47c.078.021 7.902 2.189 20.242 5.093a373.678 373.678 0 0022.562 4.566c.107.025.216.041.326.056a377.874 377.874 0 0063.448 5.37h.179a380.487 380.487 0 0063.672-5.412c.104-.015.207-.029.308-.053a378.459 378.459 0 0022.722-4.607c12.116-2.852 19.959-4.988 20.037-5.01a3.447 3.447 0 002.537-3.473c-1.104-26.301-5.187-62.045-12.135-106.241zM196.417 131.39a3.45 3.45 0 00-2.808 3.99c.088.514.175 1.028.258 1.542a3.45 3.45 0 006.812-1.098c-.088-.544-.179-1.085-.273-1.625a3.448 3.448 0 00-3.989-2.809z"/><path d="M189.394 115.776a3.455 3.455 0 004.117 2.619 3.451 3.451 0 002.62-4.117L180.507 44l31.942-11.151c.154.672.318 1.353.491 2.038l.005.022.001.002a107.231 107.231 0 002.228 7.658 118.453 118.453 0 002.827 7.685l.001.005.016.038c.394.969.807 1.936 1.18 2.786l.005.012.049.115.01.02c.121.294.246.583.383.87.173.404.354.798.526 1.17a119.943 119.943 0 002.405 4.984 128.555 128.555 0 002.45 4.615l.064.113.019.031c.546.982 1.103 1.945 1.66 2.896l.001.001a53.58 53.58 0 003.588 5.793l.058.089c.393.598.789 1.188 1.185 1.779.206.305.406.62.614.922l.003.003c.6.87 1.19 1.722 1.767 2.537.496.705.992 1.388 1.482 2.062l.198.27.051.07.003.004.029.039c.303.397.596.786.898 1.198.506.677 1.012 1.332 1.511 1.976l.178.229c.031.041.063.08.096.118.072.093.144.181.216.273.773.987 1.534 1.939 2.284 2.846l.003.003a161.666 161.666 0 003.97 4.653c.704.802 1.39 1.566 2.045 2.262h.001l.018.021.636.684.267.282c.22.234.442.472.654.693l.288.302.016.018.001.001a69.051 69.051 0 001.663 1.702l.021.017.854.858.005.006.289.285.007.007c.087.094.206.206.303.29l.396.379c.128.127.249.242.363.349l.085.082.124.113.146.134c.244.235.436.411.556.519.2.188.421.339.65.47.003.002.005.005.008.006.006.004.014.005.021.009.247.139.505.241.772.314l.065.019c.279.07.562.119.848.119.375 0 .747-.071 1.106-.192l.016-.005c.153-.053.3-.121.445-.195.038-.02.076-.036.114-.058.127-.071.248-.154.368-.243.029-.021.062-.037.091-.061.043-.033.082-.071.124-.105.032-.028.068-.048.1-.077.117-.104.304-.276.538-.502l.164-.15.123-.113.098-.094c.105-.099.217-.204.334-.32l.416-.398c.104-.089.201-.182.293-.282l.013-.012.294-.291.854-.857c.007-.007.015-.011.021-.018a64.038 64.038 0 001.661-1.701l.003-.004a.065.065 0 00.008-.009.023.023 0 00.007-.007l.292-.305a45.547 45.547 0 00.949-1.009l.619-.664.004-.003a89.347 89.347 0 002.026-2.242c.03-.033.058-.063.088-.098a161.481 161.481 0 003.916-4.596l.188-.231c.716-.867 1.438-1.771 2.176-2.715l.131-.165c.029-.035.059-.07.087-.107l.142-.184c.462-.595.929-1.201 1.407-1.837.048-.064.096-.124.143-.188l.006-.011.009-.011c.28-.382.569-.765.909-1.212l.003-.004a.347.347 0 00.019-.025l.174-.238a161.69 161.69 0 001.537-2.136c.574-.813 1.161-1.658 1.771-2.542l.003-.004a87.384 87.384 0 001.781-2.677c.189-.283.379-.566.568-.861l.009-.013a176.714 176.714 0 003.087-5.032c.558-.951 1.113-1.914 1.66-2.896.008-.014.016-.027.022-.041a160.746 160.746 0 001.365-2.506c.407-.766.787-1.5 1.146-2.212.001-.002.001-.004.003-.005a122.179 122.179 0 002.392-4.958c.183-.393.363-.787.536-1.19.16-.332.305-.661.406-.918a116.693 116.693 0 001.236-2.922l.001-.003.001-.001a121.363 121.363 0 002.826-7.684 107.111 107.111 0 002.726-9.724L331.492 44l-18.679 84.027c-4.279 19.277-4.341 38.822-.182 58.094 7.186 33.298 17.699 84.105 26.981 137.052a3.452 3.452 0 006.798-1.191c-9.303-53.058-19.836-103.958-27.033-137.317-3.947-18.291-3.889-36.843.173-55.141l19.345-87.021a3.451 3.451 0 00-2.23-4.006l-38.481-13.434c-.015-.005-.029-.006-.044-.011-.016-.006-.028-.015-.043-.02-.124-.042-.252-.055-.379-.081-.082-.017-.162-.042-.244-.053a3.29 3.29 0 00-.496-.017c-.067.001-.135-.003-.201.002a3.579 3.579 0 00-.478.078c-.064.015-.13.025-.193.044a3.606 3.606 0 00-.508.188c-.027.013-.056.024-.083.038-.094.045-.193.077-.284.131-.73.429-1.26 1.141-1.521 1.944-2.874 5.627-17.636 11.384-37.71 11.384-20.033 0-34.776-5.735-37.691-11.351a3.439 3.439 0 00-1.583-2.035 3.453 3.453 0 00-2.831-.269l-.059.021-.012.005-.007.002-38.481 13.434a3.45 3.45 0 00-2.23 4.006l16.288 73.273zM256 45.59c14.05 0 26.605-2.689 34.863-7.074-.196.631-.382 1.266-.589 1.891-.345 1.045-.7 2.08-1.076 3.111a111.884 111.884 0 01-1.599 4.162l-.002.003c-.37.921-.75 1.822-1.147 2.714v.001l-.052.12a9.348 9.348 0 01-.287.647c-.025.052-.05.105-.072.159-.154.362-.316.715-.489 1.089a112.168 112.168 0 01-2.288 4.737c-.333.663-.688 1.349-1.068 2.064-.188.356-.404.746-.607 1.119-.201.371-.39.727-.605 1.116a151.096 151.096 0 01-1.704 2.975l-.001.002a163.36 163.36 0 01-2.91 4.744c-.126.183-.245.365-.363.549l-.187.287c-.377.574-.748 1.126-1.12 1.683-.196.292-.388.593-.586.881l-.002.003c-.586.851-1.162 1.681-1.73 2.487-.55.778-1.088 1.528-1.636 2.269l-.001.001c-.319.419-.629.83-.914 1.218-.492.66-.985 1.297-1.472 1.923l-.113.146a4.273 4.273 0 00-.062.079l-.012.012a166.213 166.213 0 01-2.424 3.023 151.409 151.409 0 01-5.659 6.514l-.051.056-.001.002c-.127.133-.252.268-.375.401l-.299.322c-.386.412-.754.8-1.104 1.168l-.061.064-.001.001-.021.022-.107.112c-.354.37-.697.718-1.016 1.042L256 94.493l-1.026-1.033c-.32-.324-.664-.674-1.015-1.04l-.13-.137-.005-.005-.015-.015-.002-.003-.124-.13-.413-.436-.275-.291-.378-.402-.27-.29a23.457 23.457 0 00-.346-.372 151.214 151.214 0 01-5.745-6.607 164.68 164.68 0 01-2.424-3.024c-.005-.006-.011-.01-.015-.016l-.047-.059-.161-.207c-.472-.611-.953-1.23-1.432-1.872a70.691 70.691 0 00-.9-1.2l-.093-.128c-.474-.644-.944-1.298-1.418-1.969l-.146-.202a251.016 251.016 0 01-1.716-2.464c-.574-.845-1.147-1.71-1.734-2.605l-.17-.26a18.734 18.734 0 00-.364-.552 167.7 167.7 0 01-2.913-4.748c-.533-.91-1.065-1.83-1.587-2.768v-.001c-.037-.069-.074-.138-.115-.205-.224-.405-.421-.774-.63-1.159-.196-.362-.405-.74-.59-1.088-.229-.431-.432-.831-.643-1.241-.142-.275-.295-.564-.432-.834a114.416 114.416 0 01-2.286-4.739c-.163-.352-.326-.704-.479-1.066a3.115 3.115 0 00-.07-.154 11.815 11.815 0 01-.329-.746c-.395-.904-.789-1.827-1.167-2.758a108.063 108.063 0 01-1.596-4.154 104.236 104.236 0 01-1.074-3.107v-.002l-.001-.003c-.207-.622-.392-1.255-.586-1.884C229.395 42.9 241.95 45.59 256 45.59z"/></svg>