<svg height="800" width="800" version="1.1" id="_x32_" xmlns="http://www.w3.org/2000/svg" viewBox="0 0 512 512" xml:space="preserve"><style>.st0{fill:#000}</style><path class="st0" d="M482.429 142.558l-52.057-22.034c-4.959 4.637-12.082 8.869-22.244 10.566-1.718.286-3.848.496-6.293.656l57.715 24.429-45.926 19.436a532.685 532.685 0 0013.199 8.45c.475.287.88.628 1.32.943l39.382-16.67v70.347l-86.906 36.784c-.349 1.369-.642 2.493-.81 3.01-2.906 9.225-11.314 15.42-20.896 15.42-4.547 0-8.982-1.39-12.732-3.855l-86.62 36.664v-70.347l41.666-17.634c-3.003-4.03-5.797-7.976-8.548-11.914l-40.269 17.04-34.737-14.708a468.827 468.827 0 01-8.674 11.873l36.26 15.344v70.347l-82.59-34.954c-2.989 1.362-6.244 2.144-9.575 2.144-9.435 0-17.676-6.006-20.72-14.973l-68.846-29.136v-.461l-19.052-8.066v-69.894l36.93 15.63c1.146-1.055 2.361-2.06 3.743-2.912a467.678 467.678 0 0010.406-6.628l-44.5-18.835 63.035-26.678c-5.503-.188-8.422-.552-10.203-.852-9.247-1.544-15.93-5.189-20.819-9.316l-60.047 25.414v108.291l19.052 8.066v158.762L253.996 512l215.931-91.39V261.68l19.052-8.059V145.33l-6.55-2.772zm-237.17 342.443L63.527 408.088v-142.77l181.732 76.92v142.763zm203.214-78.61l-188.911 79.958v-144.11l188.911-79.965v144.117z"/><path class="st0" d="M106.931 112.751c12.236 2.032 61.527-.572 98.003-2.898-37.447 43.418-92.199 79.042-109.994 90.034-3.709 2.298-1.921 5.462.349 6.181 2.277.712 39.808 17.222 39.808 17.222a7.583 7.583 0 014.358 5.21s9.407 41.037 10.462 44.375c1.054 3.338 4.77 2.758 6.397 1.082 59.767-61.499 86.466-121.161 97.333-152.442.782.056 1.564.119 2.36.119.79 0 1.565-.063 2.347-.119 10.866 31.281 37.572 90.943 97.332 152.442 1.634 1.676 5.343 2.256 6.397-1.082 1.055-3.338 10.462-44.375 10.462-44.375a7.583 7.583 0 014.358-5.21s37.531-16.51 39.808-17.222c2.27-.72 4.058-3.883.349-6.181-17.808-10.992-72.652-46.686-110.092-90.16 35.848 2.361 85.649 5.098 98.101 3.024 20.008-3.338 21.119-22.229 18.891-30.008-1.599-5.573-20.128-52.889-37.782-73.351-7.025-8.15-21.119-13.339-31.12-5.559-19.582 15.232-50.15 40.199-66.639 53.719-4.19-10.294-13.143-18.074-32.412-18.074-19.624 0-28.57 8.052-32.67 18.619-14.868-12.466-45.842-38.271-66.395-54.264-10-7.78-24.094-2.591-31.12 5.559-17.654 20.462-36.182 67.777-37.782 73.35-2.227 7.78-1.117 26.671 18.891 30.009z"/></svg>