<svg height="800" width="800" xmlns="http://www.w3.org/2000/svg" viewBox="0 0 512 512"><path d="M445.1 282.811v-68.703c0-44.711-15.889-88.097-44.741-122.167-26.627-31.444-62.836-53.363-102.698-62.355.152-1.128.256-2.321.256-3.622C297.915 11.647 286.376 0 272.19 0c-6.889 0-12.043 2.509-16.273 5.692C251.57 2.395 246.579 0 239.68 0c-14.163 0-25.686 11.647-25.686 25.964 0 1.312.083 2.516.221 3.63-39.856 8.998-76.057 30.921-102.678 62.364-28.842 34.067-44.726 77.448-44.726 122.15v68.298L44.462 485.522h22.349v19.361h15.223v-19.361h47.394l-22.484-203.123v-23.757c76.959-53.225 115.291-104.145 133.935-137.687 6.912-12.434 11.714-23.452 15.061-32.683 3.347 9.231 8.149 20.249 15.061 32.683 18.642 33.54 56.97 84.457 133.92 137.678v23.774l-22.349 203.116h47.305v19.361H445.1v-19.361h22.438L445.1 282.811zM82.034 262.249h9.688v12.961h-9.688v-12.961zm30.393 208.05H61.451l19.791-179.867h11.275l19.91 179.867zm114.529-355.636c-18.025 32.044-55.205 80.909-130.001 132.364H82.034v-32.919c0-82.785 57.866-153.58 138.319-170.268 6.245 8.211 18.322 19.088 25.589 25.351-2.614 10.147-7.997 25.936-18.986 45.472zm28.983-57.547l-.735-.046c-10.118-8.79-21.985-20.09-24.256-24.688l-.075-.152c-.961-1.945-1.656-3.352-1.656-6.267.001-6.023 4.596-10.741 10.463-10.741 3.913 0 6.19 1.518 11.042 6.079l5.272 4.955 5.216-5.014c4.242-4.079 6.967-6.02 10.98-6.02 5.889 0 10.503 4.718 10.503 10.741 0 2.69-.783 4.34-1.692 6.25l-.132.278c-1.953 4.12-13.139 15.036-24.174 24.577l-.756.048zm28.983 57.547c-10.986-19.53-16.368-35.312-18.983-45.461 7.296-6.263 19.403-17.134 25.616-25.363 80.456 16.687 138.321 87.476 138.321 170.268v32.919h-14.954c-74.793-51.454-111.974-100.319-130-132.363zm144.909 147.586v12.961h-9.688v-12.961h9.688zm-30.271 208.05l19.791-179.867h11.275l19.91 179.867H399.56z"/><path d="M285.279 383.466v-2.939h63.957v-15.223H162.674v15.223h63.956v2.939c0 13.538 9.223 24.957 21.714 28.318v67.054l-30.229 20.578L226.681 512l29.258-19.917L285.195 512l8.566-12.584-30.197-20.557v-67.076c12.491-3.361 21.715-14.78 21.715-28.317zm-29.324 14.102c-7.777 0-14.102-6.326-14.102-14.102v-2.939h28.204v2.939c0 7.775-6.325 14.102-14.102 14.102z"/></svg>